<?xml version="1.0" encoding="iso-8859-1"?>
<!-- Uploaded to: SVG Repo, www.svgrepo.com, Generator: SVG Repo Mixer Tools -->
<svg fill="#000000" height="800px" width="800px" version="1.1" id="Layer_1" xmlns="http://www.w3.org/2000/svg" xmlns:xlink="http://www.w3.org/1999/xlink" 
	 viewBox="0 0 512.002 512.002" xml:space="preserve">
<g>
	<g>
		<path d="M509.308,239.679l-56.896-87.757c-5.903-9.104-15.906-14.539-26.755-14.539h-76.47c-6.685,0-12.894,2.072-18.025,5.602
			c-4.839-7.618-43.41-51.779-117.013-77.011c-42.474-14.561-90.77-20.688-134.872-12.297C68.05,55.812,58.772,63.858,55.063,74.675
			L8.137,211.555c-3.708,10.816-1.319,22.863,6.237,31.437c19.529,22.166,45.496,41.618,75.255,56.681h-57.74
			C14.304,299.672,0,313.977,0,331.561v56.621c0,9.237,7.489,16.726,16.726,16.726h9.727c-0.132,1.518-0.213,3.049-0.213,4.6
			c0,29.013,23.604,52.618,52.619,52.618c24.684,0,45.442-17.09,51.09-40.056c5.648,22.966,26.406,40.056,51.09,40.056
			c29.015,0,52.619-23.604,52.619-52.618c0-1.551-0.081-3.082-0.213-4.6h100.58h45.099c-0.132,1.518-0.213,3.049-0.213,4.6
			c0,29.013,23.604,52.618,52.619,52.618c29.013,0,52.618-23.604,52.618-52.618c0-1.63-0.085-3.24-0.231-4.834
			c15.796-1.886,28.087-15.357,28.087-31.653V248.778C512,245.72,511.121,242.474,509.308,239.679z M302.497,160.452
			l-46.343,135.181c-6.722,1.241-13.726,2.102-20.939,2.585l52.335-152.66C292.92,150.339,297.92,155.311,302.497,160.452z
			 M40.073,221.554L86.416,86.373c6.31-1.165,12.875-1.987,19.622-2.484L54.039,235.566
			C49.042,231.056,44.37,226.379,40.073,221.554z M82.089,256.903l59.192-172.661c20.441,1.824,41.546,6.358,62.019,13.377
			c20.249,6.941,39.229,16.052,56.131,26.807l-59.383,173.215c-20.054-1.895-40.72-6.377-60.778-13.254
			C118.601,277.3,99.255,267.952,82.089,256.903z M78.859,428.672c-10.569,0-19.166-8.597-19.166-19.165
			c0-10.582,8.616-19.165,19.166-19.165c10.529,0,19.165,8.564,19.165,19.165C98.023,420.075,89.426,428.672,78.859,428.672z
			 M181.039,428.672c-10.568,0-19.165-8.597-19.165-19.165c0-10.612,8.648-19.165,19.165-19.165
			c10.529,0,19.166,8.563,19.166,19.165C200.205,420.075,191.608,428.672,181.039,428.672z M317.298,371.455h-99.937
			c-9.692-9.221-22.646-14.565-36.321-14.565c-13.469,0-26.472,5.195-36.319,14.565H115.18c-9.453-8.99-22.299-14.565-36.32-14.565
			c-13.818,0-26.719,5.432-36.321,14.565h-9.087v-38.33h283.845V371.455z M317.298,299.672h-27.165l27.165-79.238V299.672z
			 M454.819,217.128l9.676,14.923h-58.348v-14.923H454.819z M431.527,428.672c-10.569,0-19.166-8.597-19.166-19.165
			c0-10.612,8.649-19.165,19.166-19.165c10.528,0,19.165,8.563,19.165,19.165C450.693,420.075,442.095,428.672,431.527,428.672z
			 M478.548,371.456h-10.7c-9.475-9.011-22.334-14.565-36.32-14.565c-13.716,0-26.632,5.35-36.321,14.565h-44.457v-55.057V170.835
			h74.055l8.325,12.841h-43.709c-9.237,0-16.726,7.489-16.726,16.726v48.376c0,9.237,7.489,16.726,16.726,16.726h89.127V371.456z"/>
	</g>
</g>
<g>
	<g>
		<path d="M403.726,281.468h-28.609c-9.237,0-16.726,7.489-16.726,16.726c0,9.237,7.489,16.726,16.726,16.726h28.609
			c9.237,0,16.726-7.489,16.726-16.726C420.452,288.956,412.964,281.468,403.726,281.468z"/>
	</g>
</g>
</svg>